<svg xmlns="http://www.w3.org/2000/svg" viewBox="0 -0.5 80 80" shape-rendering="crispEdges">
<metadata>Original pheonix art by Hugijurus | Overcaffeinated logo by Arcblroth</metadata>
<metadata>Converted from pixels to svg via https://codepen.io/shshaw/pen/XbxvNj</metadata>
<path stroke="#dd5105" d="M15 5h1M16 6h1M16 7h1M9 8h1M16 8h3M25 8h1M10 9h1M18 9h3M26 9h1M35 9h1M10 10h2M14 10h5M21 10h1M26 10h3M36 10h1M44 10h1M10 11h1M13 11h2M18 11h2M23 11h3M28 11h2M38 11h1M44 11h2M38 12h1M45 12h1M11 13h1M26 13h1M30 13h1M38 13h3M45 13h1M11 14h3M31 14h1M39 14h2M45 14h2M13 15h2M33 15h1M40 15h4M46 15h3M14 16h1M34 16h1M41 16h8M41 17h8M11 18h1M15 18h1M35 18h1M39 18h11M13 19h4M36 19h1M39 19h11M14 20h5M38 20h1M40 20h11M16 21h3M39 21h12M18 22h1M41 22h5M48 22h3M18 23h2M41 23h5M48 23h4M19 24h2M43 24h2M48 24h4M15 25h1M18 25h2M43 25h2M46 25h5M69 25h1M16 26h3M43 26h8M55 26h1M58 26h1M61 26h1M18 27h1M43 27h7M55 27h1M61 27h1M18 28h2M43 28h7M53 28h1M55 28h2M59 28h3M19 29h2M41 29h8M51 29h1M54 29h5M61 29h1M8 30h1M20 30h4M41 30h8M50 30h1M53 30h8M63 30h1M23 31h2M41 31h6M49 31h1M51 31h11M24 32h1M41 32h5M51 32h5M58 32h4M24 33h2M41 33h5M48 33h1M50 33h6M58 33h4M24 34h3M41 34h5M49 34h8M59 34h5M25 35h4M43 35h9M56 35h1M60 35h2M15 36h1M24 36h3M29 36h1M44 36h6M56 36h5M15 37h1M26 37h1M44 37h5M58 37h2M14 38h2M26 38h3M30 38h1M44 38h5M58 38h2M61 38h1M70 38h1M14 39h1M28 39h2M44 39h1M46 39h1M59 39h1M61 39h3M70 39h1M30 40h1M21 41h1M31 41h3M21 42h1M33 42h1M20 43h4M33 43h2M53 43h2M20 44h2M34 44h5M51 44h4M36 45h4M51 45h6M36 46h3M53 46h1M55 46h1M38 47h1M38 48h1M54 48h1M38 49h2M53 49h1M39 50h1M53 50h1M39 51h1M41 51h3M39 52h1M39 53h2M44 53h1M51 53h1M38 54h3M44 54h6M38 55h7M46 55h1M38 56h2M43 56h2M46 56h1M38 57h2M36 58h4M45 58h1M50 58h1M36 59h3M40 59h1M45 59h2M35 60h4M40 60h1M45 60h5M35 61h4M46 61h3M35 62h4M34 63h5M43 63h1M33 64h9M31 65h4M36 65h5M30 66h5M36 66h4M30 67h4M36 67h1M39 67h1M30 68h4M35 68h2M39 68h1M29 69h5M35 69h2M39 69h1M28 70h4M35 70h2M39 70h1M28 71h3M35 71h2M39 71h1M35 72h1M26 73h1M35 73h1" />
<path stroke="#dd5004" d="M17 6h1M27 9h1M12 10h1M22 10h1M37 10h1M32 14h1M12 18h1M37 19h1M62 26h1M62 27h1M62 28h1M52 29h1M62 29h1M22 41h1M22 44h1M57 45h1M52 53h1M42 64h1M37 68h1M37 69h1M32 70h1M37 70h1M37 71h1M27 73h1" />
<path stroke="#e7cf23" d="M43 6h1M44 8h1M44 9h1M46 9h1M19 10h2M45 10h2M11 11h1M15 11h2M20 11h2M46 11h1M15 12h2M20 12h1M46 12h1M13 13h8M23 13h3M28 13h2M46 13h3M14 14h5M20 14h2M24 14h7M48 14h2M15 15h5M25 15h4M30 15h2M49 15h1M15 16h6M26 16h8M49 16h2M16 17h5M28 17h3M33 17h1M50 17h1M16 18h9M28 18h3M33 18h2M50 18h1M18 19h14M35 19h1M50 19h2M19 20h2M23 20h2M26 20h1M30 20h4M36 20h1M51 20h3M19 21h3M28 21h1M31 21h4M36 21h3M51 21h4M20 22h2M33 22h1M38 22h1M53 22h2M20 23h4M33 23h1M35 23h1M38 23h3M46 23h1M53 23h2M21 24h4M34 24h1M39 24h3M45 24h2M53 24h2M20 25h7M35 25h1M39 25h3M45 25h1M51 25h4M19 26h11M40 26h2M51 26h4M56 26h1M20 27h10M40 27h2M51 27h1M54 27h1M20 28h11M39 28h3M50 28h2M54 28h1M58 28h1M21 29h11M39 29h2M49 29h2M59 29h2M24 30h5M30 30h2M39 30h2M49 30h1M61 30h1M25 31h5M31 31h3M39 31h2M48 31h1M63 31h1M26 32h4M40 32h1M63 32h1M26 33h5M34 33h1M40 33h1M46 33h1M56 33h1M63 33h1M28 34h4M35 34h1M40 34h1M46 34h1M29 35h5M40 35h2M53 35h3M58 35h1M63 35h2M28 36h1M30 36h5M41 36h3M50 36h2M55 36h1M61 36h5M31 37h4M43 37h1M50 37h1M55 37h1M63 37h3M29 38h1M31 38h6M43 38h1M49 38h2M53 38h4M60 38h1M63 38h3M30 39h9M43 39h1M45 39h1M48 39h2M53 39h1M58 39h1M60 39h1M64 39h2M31 40h9M41 40h1M44 40h6M53 40h1M61 40h1M65 40h1M34 41h16M51 41h3M65 41h1M35 42h15M51 42h1M35 43h15M51 43h1M39 44h2M43 44h6M43 45h4M39 46h2M43 46h3M51 46h1M56 46h1M39 47h2M43 47h1M45 47h1M39 48h5M45 48h1M53 48h1M55 48h1M40 49h4M45 49h1M54 49h1M40 50h6M51 50h1M54 50h1M40 51h1M44 51h3M50 51h2M54 51h2M45 52h2M50 52h1M54 52h1M41 53h3M45 53h6M54 53h1M41 54h3M50 54h1M48 55h3M41 56h1M48 56h3M41 57h1M48 57h2M41 58h3M46 58h4M39 59h1M41 59h3M48 59h2M39 60h1M41 60h3M39 61h5M45 61h1M39 62h3M39 63h3M46 63h1M46 64h1M43 65h1M45 65h2M43 66h4M44 67h2M44 68h2M41 69h4" />
<path stroke="#dc5104" d="M17 7h1M17 22h1M17 27h1M22 42h1M32 42h1M37 47h1M37 57h1M37 67h1" />
<path stroke="#e6cf22" d="M47 9h1M47 10h1M47 11h1M52 19h1M47 34h1M62 40h1M57 46h1M52 51h1M47 63h1M47 64h1M47 65h1M47 66h1" />
<path stroke="#e29715" d="M12 11h1M17 11h1M22 11h1M32 15h1M37 20h1M47 23h1M42 24h1M47 24h1M42 25h1M42 26h1M57 26h1M42 27h1M42 28h1M52 28h1M62 30h1M47 33h1M57 33h1M42 35h1M57 38h1M52 43h1M52 46h1M52 50h1M42 56h1M42 63h1" />
<path stroke="#e29014" d="M11 12h4M18 12h2M23 12h3M28 12h2M15 17h1M34 17h1M49 17h1M19 22h1M39 22h2M46 22h1M51 22h1M19 27h1M50 27h1M53 27h1M56 27h3M25 32h1M46 32h3M56 32h1M28 37h3M49 37h1M56 37h1M60 37h2M34 42h1M53 42h1M53 47h1M55 47h1M40 52h5M51 52h2M43 57h1M46 57h1M50 57h1M43 62h1M46 62h1" />
<path stroke="#e4b31c" d="M17 12h1M52 27h1M52 42h1M42 57h1M42 62h1" />
<path stroke="#f2e68d" d="M21 12h1M21 17h4M26 17h1M31 17h1M23 22h1M28 22h1M31 22h1M34 22h3M30 27h1M39 27h1M30 32h5M39 32h1M35 37h2M41 37h1M51 37h4M41 47h1M44 47h1M51 47h1M56 47h1M48 52h2" />
<path stroke="#ebc058" d="M22 12h1M52 47h1" />
<path stroke="#e0760e" d="M27 12h1" />
<path stroke="#e7ce23" d="M47 12h1" />
<path stroke="#e18812" d="M12 13h1M27 13h1M47 14h1M17 19h1M52 23h1M52 24h1M57 28h1M47 31h1M62 31h1M62 32h1M62 33h1M27 34h1M52 35h1M57 35h1M62 35h1M27 36h1M62 38h1M47 39h1M47 55h1M47 56h1M47 59h1" />
<path stroke="#fefdf7" d="M21 13h1M19 14h1M23 14h1M20 15h5M29 15h1M21 16h5M25 17h1M25 18h2M31 18h1M33 19h2M21 20h1M25 20h1M28 20h2M34 20h2M23 21h4M29 21h2M35 21h1M24 22h3M29 22h2M24 23h8M34 23h1M36 23h1M25 24h9M35 24h4M28 25h7M36 25h3M30 26h10M31 27h8M31 28h8M33 29h6M29 30h1M33 30h6M30 31h1M34 31h5M35 32h4M31 33h3M35 33h5M33 34h2M36 34h4M58 34h1M34 35h6M59 35h1M35 36h6M53 36h2M38 37h3M38 38h4M51 38h1M39 39h3M50 39h2M40 40h1M43 40h1M50 40h2M50 41h1M50 42h1M50 43h1M41 44h1M49 44h2M40 45h2M48 45h3M41 46h1M46 46h5M46 47h5M44 48h1M46 48h6M56 48h1M44 49h1M46 49h6M55 49h2M46 50h5M55 50h2M48 51h2" />
<path stroke="#f3e89a" d="M22 13h1M27 18h1M32 18h1M22 20h1M27 21h1M32 23h1M37 23h1M42 38h1M52 38h1M42 39h1M52 39h1M52 40h1M42 44h1M42 45h1M42 46h1M52 48h1" />
<path stroke="#f1e37f" d="M22 14h1M32 19h1M27 20h1M22 21h1M27 25h1M32 29h1M32 30h1M32 34h1M52 36h1M37 38h1M42 40h1M47 45h1M47 51h1" />
<path stroke="#eddb5e" d="M27 17h1M32 17h1M32 22h1M37 22h1M42 37h1M42 47h1" />
<path stroke="#ecd951" d="M22 22h1M47 52h1" />
<path stroke="#f8f2c8" d="M27 22h1" />
<path stroke="#df740d" d="M47 22h1M57 32h1M57 37h1" />
<path stroke="#e4ab1a" d="M52 22h1M62 37h1M47 57h1" />
<path stroke="#eb9c6e" d="M57 34h1" />
<path stroke="#df6c0b" d="M27 37h1" />
<path stroke="#f7f0bb" d="M37 37h1" />
<path stroke="#f3e68d" d="M57 47h1" />
<path stroke="#fdfdf6" d="M57 48h1M57 49h1M57 50h1" />
<path stroke="#efb18d" d="M52 49h1" />
<path stroke="#e07e0f" d="M47 62h1" />
</svg>